<?xml version="1.0" encoding="UTF-8" standalone="no"?>
<svg
   xmlns:dc="http://purl.org/dc/elements/1.1/"
   xmlns:cc="http://creativecommons.org/ns#"
   xmlns:rdf="http://www.w3.org/1999/02/22-rdf-syntax-ns#"
   xmlns:svg="http://www.w3.org/2000/svg"
   xmlns="http://www.w3.org/2000/svg"
   xmlns:sodipodi="http://sodipodi.sourceforge.net/DTD/sodipodi-0.dtd"
   xmlns:inkscape="http://www.inkscape.org/namespaces/inkscape"
   version="1.1"
   x="0px"
   y="0px"
   viewBox="0 0 100 100"
   enable-background="new 0 0 100 100"
   xml:space="preserve"
   id="svg2"
   inkscape:version="0.91 r13725"
   sodipodi:docname="sleep.svg"
   width="100"
   height="100"><metadata
     id="metadata22"><rdf:RDF><cc:Work
         rdf:about=""><dc:format>image/svg+xml</dc:format><dc:type
           rdf:resource="http://purl.org/dc/dcmitype/StillImage" /><dc:title /></cc:Work></rdf:RDF></metadata><defs
     id="defs20" /><sodipodi:namedview
     pagecolor="#ffffff"
     bordercolor="#666666"
     borderopacity="1"
     objecttolerance="10"
     gridtolerance="10"
     guidetolerance="10"
     inkscape:pageopacity="0"
     inkscape:pageshadow="2"
     inkscape:window-width="1855"
     inkscape:window-height="1056"
     id="namedview18"
     showgrid="false"
     inkscape:zoom="1.888"
     inkscape:cx="37.894"
     inkscape:cy="32.5"
     inkscape:window-x="65"
     inkscape:window-y="24"
     inkscape:window-maximized="1"
     inkscape:current-layer="svg2" /><g
     id="g4"
     style="fill:#000000;fill-opacity:1"><path
       d="m 87.104,16.465 c -8.259,-7.393 -18.915,-11.465 -29.998,-11.465 -24.814,0 -45,20.188 -45,45 0,24.812 20.186,45 45,45 10.263,0 19.935,-3.375 27.97,-9.76 0.864,-0.686 1.14,-1.88 0.662,-2.876 -0.478,-0.996 -1.581,-1.529 -2.656,-1.289 -2.283,0.515 -4.606,0.774 -6.903,0.774 -15.129,0 -28.075,-10.785 -30.779,-25.643 -0.234,-1.287 -1.468,-2.138 -2.754,-1.906 -1.289,0.236 -2.142,1.469 -1.907,2.756 2.991,16.42 16.837,28.52 33.344,29.469 -5.263,2.461 -11.008,3.737 -16.976,3.737 -22.201,0 -40.263,-18.062 -40.263,-40.263 0,-22.201 18.061,-40.262 40.262,-40.262 6.712,0 13.248,1.669 19.063,4.799 -10.279,0.003 -20.092,4.412 -26.927,12.101 -0.867,0.978 -0.779,2.475 0.199,3.344 0.976,0.871 2.473,0.78 3.343,-0.197 5.937,-6.68 14.464,-10.512 23.394,-10.512 2.927,0 5.852,0.415 8.69,1.234 1.063,0.307 2.194,-0.162 2.729,-1.13 0.535,-0.967 0.331,-2.174 -0.493,-2.911 z"
       id="path6"
       inkscape:connector-curvature="0"
       style="fill:#000000;fill-opacity:1" /><path
       d="m 51.13,59.094 c 0.366,0.885 1.228,1.462 2.186,1.462 l 13.264,0 c 1.309,0 2.369,-1.06 2.369,-2.368 0,-1.308 -1.061,-2.367 -2.369,-2.367 l -7.545,0 8.271,-8.273 c 0.679,-0.678 0.881,-1.697 0.515,-2.582 -0.366,-0.885 -1.23,-1.461 -2.188,-1.461 l -12.318,0 c -1.307,0 -2.367,1.061 -2.367,2.368 0,1.307 1.061,2.368 2.367,2.368 l 6.598,0 -8.272,8.272 c -0.678,0.678 -0.88,1.696 -0.511,2.581 z"
       id="path8"
       inkscape:connector-curvature="0"
       style="fill:#000000;fill-opacity:1" /><path
       d="m 84.579,63.059 -5.649,0 6.513,-6.512 c 0.677,-0.678 0.879,-1.697 0.513,-2.582 -0.366,-0.885 -1.23,-1.461 -2.188,-1.461 l -10.557,0 c -1.309,0 -2.369,1.061 -2.369,2.368 0,1.307 1.061,2.368 2.369,2.368 l 4.838,0 -6.513,6.514 c -0.678,0.676 -0.88,1.695 -0.514,2.58 0.366,0.885 1.23,1.463 2.188,1.463 l 11.368,0 c 1.309,0 2.369,-1.061 2.369,-2.369 0,-1.308 -1.059,-2.369 -2.368,-2.369 z"
       id="path10"
       inkscape:connector-curvature="0"
       style="fill:#000000;fill-opacity:1" /><path
       d="m 27.443,50.568 c 0.366,0.885 1.23,1.462 2.188,1.462 l 18,0 c 1.31,0 2.37,-1.061 2.37,-2.368 0,-1.309 -1.061,-2.369 -2.37,-2.369 l -12.28,0 12.671,-12.671 c 0.677,-0.677 0.879,-1.696 0.513,-2.581 -0.366,-0.885 -1.23,-1.462 -2.188,-1.462 l -16.715,0 c -1.307,0 -2.367,1.061 -2.367,2.368 0,1.309 1.061,2.369 2.367,2.369 l 10.995,0 -12.668,12.671 c -0.68,0.677 -0.882,1.695 -0.516,2.581 z"
       id="path12"
       inkscape:connector-curvature="0"
       style="fill:#000000;fill-opacity:1" /></g></svg>